<svg width="463" height="430" viewBox="0 0 463 430" fill="none" xmlns="http://www.w3.org/2000/svg">
<rect x="31" y="15" width="400" height="400" rx="100" fill="white"/>
<path d="M291.1 186.209L340 206.5" stroke="#6420C6" stroke-width="6"/>
<path d="M292.351 204L341.251 224.291" stroke="#6420C6" stroke-width="6"/>
<line x1="341.898" y1="163.65" x2="341.898" y2="252.092" stroke="#6420C6" stroke-width="7.80368"/>
<path d="M403.026 165.601H337.996" stroke="#6420C6" stroke-width="7.80368"/>
<path d="M399.124 163V167.552L384.818 176.006L373.762 182.509L371.161 187.061L369.21 191.613L368.56 198.117V203.319V209.822V218.926V228.681V236.485L373.112 240.387H383.517H389.37H394.572H399.124H405.628H413.431L410.18 248.84L403.677 254.693L399.124 258.595L391.321 264.448L383.517 268.35L371.161 269H364.008H354.253L350.351 267.699L345.149 263.798L341.897 255.994V248.19" stroke="#6420C6" stroke-width="7.80368"/>
<rect x="37" y="21" width="388" height="388" rx="99" stroke="url(#paint0_linear_1372_1727)" stroke-width="2"/>
<path d="M329.118 233.85H322.623C319.578 223.573 313.56 214.263 305.396 207.229L300.729 188.566C300.584 187.986 300.307 187.447 299.919 186.992C299.531 186.536 299.044 186.176 298.494 185.941L286.179 180.657C285.233 180.251 284.164 180.238 283.208 180.62C282.252 181.002 281.487 181.748 281.081 182.694C280.675 183.641 280.662 184.709 281.044 185.665C281.426 186.621 282.172 187.387 283.118 187.793L293.664 192.317L295.711 200.503C271.134 186.999 239.253 193.806 222.669 217.773H82.7821V192.26L144.385 170.815V181.47C144.385 182.378 144.704 183.256 145.284 183.954L165.362 208.062C165.727 208.499 166.183 208.851 166.698 209.093C167.214 209.334 167.776 209.46 168.345 209.46H216.577C217.248 209.459 217.908 209.286 218.491 208.955C219.075 208.624 219.563 208.147 219.908 207.572L242.25 170.258L267.576 181.124C268.522 181.53 269.591 181.544 270.547 181.162C271.503 180.78 272.268 180.034 272.674 179.087C273.08 178.141 273.094 177.072 272.712 176.116C272.329 175.16 271.583 174.395 270.637 173.989L244.27 162.677L236.961 96.918H240.662C241.691 96.918 242.679 96.509 243.407 95.781C244.135 95.0531 244.544 94.0657 244.544 93.0362V76.959C244.544 75.9295 244.135 74.9421 243.407 74.2141C242.679 73.4861 241.691 73.0771 240.662 73.0771H178.051C177.021 73.0771 176.034 73.4861 175.306 74.2141C174.578 74.9421 174.169 75.9295 174.169 76.959C174.169 77.9885 174.578 78.9759 175.306 79.7039C176.034 80.4319 177.021 80.8409 178.051 80.8409H236.78V89.1543H144.11V80.8409H161.146C162.176 80.8409 163.163 80.4319 163.891 79.7039C164.619 78.9759 165.028 77.9885 165.028 76.959C165.028 75.9295 164.619 74.9421 163.891 74.2141C163.163 73.4861 162.176 73.0771 161.146 73.0771H140.229C139.199 73.0771 138.212 73.4861 137.484 74.2141C136.756 74.9421 136.347 75.9295 136.347 76.959V93.0362C136.347 94.0657 136.756 95.0531 137.484 95.781C138.212 96.509 139.199 96.918 140.229 96.918H144.385V162.594L77.6239 185.834C76.8628 186.099 76.203 186.594 75.7361 187.251C75.2693 187.908 75.0184 188.694 75.0184 189.5V217.773H71.8819C70.8523 217.773 69.865 218.182 69.137 218.91C68.409 219.638 68 220.625 68 221.655V253.794C68.0018 254.396 68.1427 254.989 68.4119 255.528C68.6811 256.067 69.0712 256.536 69.5517 256.899L94.2818 275.459C100.028 293.119 116.638 305.923 136.191 305.923C156.362 305.923 173.398 292.296 178.609 273.769H218.075C227.337 293.356 246.998 305.887 268.81 305.887C290.638 305.887 310.282 293.36 319.544 273.769C321.166 273.519 325.174 274.785 326.527 271.287C333.001 254.304 333 255.105 333 253.825V237.732C333 236.702 332.591 235.715 331.863 234.987C331.135 234.259 330.148 233.85 329.118 233.85ZM152.149 180.064V169.235H196.587V201.696H170.165L152.149 180.064ZM236.659 164.481L214.377 201.695H204.351V96.9185H229.149L236.659 164.481ZM196.587 96.9185V161.471H152.149V96.9185H196.587ZM268.81 201.42C289.642 201.42 307.791 214.54 314.476 233.85H304.091C297.882 220.12 284.031 211.068 268.81 211.068C253.587 211.068 239.739 220.119 233.529 233.85H223.144C229.832 214.546 247.999 201.42 268.81 201.42ZM295.339 233.85H242.281C254.325 213.87 283.281 213.85 295.339 233.85ZM214.991 233.85C211.844 234.059 209.845 233.241 208.099 234.986L193.13 249.941L178.602 249.917C175.775 239.89 169.489 231.304 161.11 225.537H218.171C216.892 228.219 215.829 230.999 214.991 233.85ZM93.7823 249.912H75.7637V225.537H111.272C102.894 231.302 96.6094 239.888 93.7823 249.912ZM83.5213 257.675H92.3274C92.1174 259.836 92.07 262.01 92.1856 264.178L83.5213 257.675ZM136.191 298.159C116.173 298.159 99.8872 281.873 99.8872 261.856C99.8872 241.838 116.173 225.552 136.191 225.552C156.387 225.552 172.495 242.056 172.495 261.856C172.495 281.873 156.209 298.159 136.191 298.159ZM226.824 273.768H238.443C245.763 283.016 256.953 288.476 268.81 288.476C280.653 288.476 291.856 283.012 299.174 273.768H310.796C292.289 306.203 245.346 306.217 226.824 273.768ZM249.307 273.768H288.31C282.852 278.195 275.981 280.712 268.81 280.712C261.63 280.712 254.763 278.197 249.307 273.768ZM325.236 253.1L320.246 266.004H180.057C180.326 263.237 180.325 260.45 180.055 257.683L194.734 257.706C197.55 257.706 197.235 256.287 212.449 241.613H325.236V253.1Z" fill="url(#paint1_linear_1372_1727)"/>
<path d="M136.191 233.834C120.749 233.834 108.186 246.397 108.186 261.84C108.186 280.143 125.595 293.656 143.424 288.902C144.411 288.63 145.251 287.979 145.76 287.091C146.27 286.202 146.408 285.149 146.144 284.159C145.88 283.17 145.236 282.324 144.351 281.808C143.467 281.291 142.415 281.145 141.423 281.401C128.534 284.837 115.949 275.07 115.949 261.84C115.949 250.678 125.03 241.598 136.191 241.598C152.287 241.598 161.844 259.524 153.176 272.856C152.621 273.719 152.43 274.767 152.646 275.77C152.861 276.773 153.465 277.651 154.325 278.21C155.185 278.769 156.232 278.965 157.236 278.755C158.24 278.545 159.121 277.946 159.684 277.089C171.656 258.675 158.5 233.834 136.191 233.834ZM256.772 257.707H288.925C289.955 257.707 290.942 257.298 291.67 256.57C292.398 255.842 292.807 254.854 292.807 253.825C292.807 252.795 292.398 251.808 291.67 251.08C290.942 250.352 289.955 249.943 288.925 249.943H256.772C255.742 249.943 254.755 250.352 254.027 251.08C253.299 251.808 252.89 252.795 252.89 253.825C252.89 254.854 253.299 255.842 254.027 256.57C254.755 257.298 255.742 257.707 256.772 257.707ZM313.043 257.676C315.254 257.676 316.925 255.856 316.925 253.794C316.925 251.681 315.209 249.914 313.045 249.914C310.864 249.914 309.161 251.674 309.161 253.794C309.161 255.915 310.872 257.676 313.043 257.676ZM128.233 186.388C127.841 186.715 127.518 187.115 127.281 187.566C127.044 188.018 126.898 188.511 126.852 189.019C126.805 189.527 126.859 190.038 127.011 190.525C127.162 191.012 127.408 191.464 127.735 191.856L141.118 207.925C141.777 208.716 142.723 209.213 143.748 209.307C144.773 209.4 145.794 209.082 146.585 208.424C147.376 207.765 147.873 206.818 147.966 205.793C148.06 204.768 147.742 203.747 147.083 202.956L133.7 186.887C133.041 186.096 132.095 185.599 131.07 185.506C130.045 185.412 129.024 185.73 128.233 186.388ZM110.819 194.423C110.427 194.75 110.104 195.15 109.867 195.601C109.63 196.053 109.484 196.546 109.437 197.054C109.391 197.561 109.445 198.073 109.597 198.56C109.748 199.047 109.994 199.499 110.321 199.891L117.012 207.925C117.671 208.716 118.617 209.213 119.643 209.307C120.668 209.4 121.689 209.082 122.48 208.424C123.271 207.765 123.768 206.818 123.861 205.793C123.955 204.768 123.637 203.747 122.978 202.956L116.286 194.922C115.96 194.53 115.56 194.207 115.108 193.969C114.657 193.732 114.164 193.587 113.656 193.54C113.148 193.494 112.636 193.548 112.15 193.7C111.663 193.851 111.211 194.097 110.819 194.423Z" fill="url(#paint2_linear_1372_1727)"/>
<g filter="url(#filter0_b_1372_1727)">
<rect width="193.1" height="75.1" transform="translate(199 273.8)" fill="white"/>
<g filter="url(#filter1_bd_1372_1727)">
<path d="M251.176 329.043H223.455V318.215H249.449V304.028H223.455V293.154H251.176V277.427H203.667V344.77H251.176V329.043ZM259.961 344.77H314.144V329.043H283.109V328.669L313.024 289.794V277.427H260.241V293.154H289.969V293.527L259.961 332.356V344.77ZM362.598 344.77V323.442L385.605 277.427H364.931L353.124 304.728H352.75L340.943 277.427H319.802L342.81 323.442V344.77H362.598Z" fill="url(#paint3_linear_1372_1727)"/>
<path d="M251.176 329.043H252.25V327.969H251.176V329.043ZM223.455 329.043H222.381V330.116H223.455V329.043ZM223.455 318.215V317.141H222.381V318.215H223.455ZM249.449 318.215V319.289H250.523V318.215H249.449ZM249.449 304.028H250.523V302.954H249.449V304.028ZM223.455 304.028H222.381V305.102H223.455V304.028ZM223.455 293.154V292.08H222.381V293.154H223.455ZM251.176 293.154V294.228H252.25V293.154H251.176ZM251.176 277.427H252.25V276.353H251.176V277.427ZM203.667 277.427V276.353H202.593V277.427H203.667ZM203.667 344.77H202.593V345.844H203.667V344.77ZM251.176 344.77V345.844H252.25V344.77H251.176ZM251.176 327.969H223.455V330.116H251.176V327.969ZM224.528 329.043V318.215H222.381V329.043H224.528ZM223.455 319.289H249.449V317.141H223.455V319.289ZM250.523 318.215V304.028H248.375V318.215H250.523ZM249.449 302.954H223.455V305.102H249.449V302.954ZM224.528 304.028V293.154H222.381V304.028H224.528ZM223.455 294.228H251.176V292.08H223.455V294.228ZM252.25 293.154V277.427H250.102V293.154H252.25ZM251.176 276.353H203.667V278.5H251.176V276.353ZM202.593 277.427V344.77H204.741V277.427H202.593ZM203.667 345.844H251.176V343.696H203.667V345.844ZM252.25 344.77V329.043H250.102V344.77H252.25ZM259.961 344.77H258.887V345.844H259.961V344.77ZM314.144 344.77V345.844H315.218V344.77H314.144ZM314.144 329.043H315.218V327.969H314.144V329.043ZM283.109 329.043H282.035V330.116H283.109V329.043ZM283.109 328.669L282.258 328.014L282.035 328.304V328.669H283.109ZM313.024 289.794L313.875 290.449L314.098 290.159V289.794H313.024ZM313.024 277.427H314.098V276.353H313.024V277.427ZM260.241 277.427V276.353H259.167V277.427H260.241ZM260.241 293.154H259.167V294.228H260.241V293.154ZM289.969 293.154H291.043V292.08H289.969V293.154ZM289.969 293.527L290.819 294.184L291.043 293.894V293.527H289.969ZM259.961 332.356L259.111 331.699L258.887 331.989V332.356H259.961ZM259.961 345.844H314.144V343.696H259.961V345.844ZM315.218 344.77V329.043H313.07V344.77H315.218ZM314.144 327.969H283.109V330.116H314.144V327.969ZM284.183 329.043V328.669H282.035V329.043H284.183ZM283.96 329.324L313.875 290.449L312.173 289.139L282.258 328.014L283.96 329.324ZM314.098 289.794V277.427H311.95V289.794H314.098ZM313.024 276.353H260.241V278.5H313.024V276.353ZM259.167 277.427V293.154H261.315V277.427H259.167ZM260.241 294.228H289.969V292.08H260.241V294.228ZM288.895 293.154V293.527H291.043V293.154H288.895ZM289.12 292.871L259.111 331.699L260.811 333.013L290.819 294.184L289.12 292.871ZM258.887 332.356V344.77H261.035V332.356H258.887ZM362.598 344.77V345.844H363.671V344.77H362.598ZM362.598 323.442L361.637 322.962L361.524 323.189V323.442H362.598ZM385.605 277.427L386.566 277.907L387.343 276.353H385.605V277.427ZM364.931 277.427V276.353H364.225L363.945 277L364.931 277.427ZM353.124 304.728V305.802H353.829L354.109 305.154L353.124 304.728ZM352.75 304.728L351.765 305.154L352.045 305.802H352.75V304.728ZM340.943 277.427L341.929 277L341.649 276.353H340.943V277.427ZM319.802 277.427V276.353H318.064L318.842 277.907L319.802 277.427ZM342.81 323.442H343.884V323.189L343.77 322.962L342.81 323.442ZM342.81 344.77H341.736V345.844H342.81V344.77ZM363.671 344.77V323.442H361.524V344.77H363.671ZM363.558 323.922L386.566 277.907L384.645 276.946L361.637 322.962L363.558 323.922ZM385.605 276.353H364.931V278.5H385.605V276.353ZM363.945 277L352.138 304.302L354.109 305.154L365.917 277.853L363.945 277ZM353.124 303.654H352.75V305.802H353.124V303.654ZM353.736 304.302L341.929 277L339.957 277.853L351.765 305.154L353.736 304.302ZM340.943 276.353H319.802V278.5H340.943V276.353ZM318.842 277.907L341.849 323.922L343.77 322.962L320.763 276.946L318.842 277.907ZM341.736 323.442V344.77H343.884V323.442H341.736ZM342.81 345.844H362.598V343.696H342.81V345.844Z" fill="#D2D3D6"/>
</g>
</g>
<defs>
<filter id="filter0_b_1372_1727" x="-301" y="-226.2" width="1193.1" height="1075.1" filterUnits="userSpaceOnUse" color-interpolation-filters="sRGB">
<feFlood flood-opacity="0" result="BackgroundImageFix"/>
<feGaussianBlur in="BackgroundImageFix" stdDeviation="250"/>
<feComposite in2="SourceAlpha" operator="in" result="effect1_backgroundBlur_1372_1727"/>
<feBlend mode="normal" in="SourceGraphic" in2="effect1_backgroundBlur_1372_1727" result="shape"/>
</filter>
<filter id="filter1_bd_1372_1727" x="-296.333" y="-222.574" width="1181.94" height="1067.34" filterUnits="userSpaceOnUse" color-interpolation-filters="sRGB">
<feFlood flood-opacity="0" result="BackgroundImageFix"/>
<feGaussianBlur in="BackgroundImageFix" stdDeviation="250"/>
<feComposite in2="SourceAlpha" operator="in" result="effect1_backgroundBlur_1372_1727"/>
<feColorMatrix in="SourceAlpha" type="matrix" values="0 0 0 0 0 0 0 0 0 0 0 0 0 0 0 0 0 0 127 0" result="hardAlpha"/>
<feOffset dy="3"/>
<feGaussianBlur stdDeviation="15"/>
<feComposite in2="hardAlpha" operator="out"/>
<feColorMatrix type="matrix" values="0 0 0 0 0.54902 0 0 0 0 0.290196 0 0 0 0 0.886275 0 0 0 0.15 0"/>
<feBlend mode="normal" in2="effect1_backgroundBlur_1372_1727" result="effect2_dropShadow_1372_1727"/>
<feBlend mode="normal" in="SourceGraphic" in2="effect2_dropShadow_1372_1727" result="shape"/>
</filter>
<linearGradient id="paint0_linear_1372_1727" x1="231" y1="20" x2="231" y2="410" gradientUnits="userSpaceOnUse">
<stop stop-color="#8C4AE2"/>
<stop offset="0.878125" stop-color="#743BD1"/>
</linearGradient>
<linearGradient id="paint1_linear_1372_1727" x1="200.5" y1="73.0771" x2="200.5" y2="305.923" gradientUnits="userSpaceOnUse">
<stop stop-color="#5000B8"/>
<stop offset="0.878125" stop-color="#743BD1"/>
</linearGradient>
<linearGradient id="paint2_linear_1372_1727" x1="212.555" y1="185.49" x2="212.555" y2="289.862" gradientUnits="userSpaceOnUse">
<stop stop-color="#8C4AE2"/>
<stop offset="0.878125" stop-color="#743BD1"/>
</linearGradient>
<linearGradient id="paint3_linear_1372_1727" x1="295.55" y1="271.77" x2="295.55" y2="349.03" gradientUnits="userSpaceOnUse">
<stop stop-color="#6F00FF"/>
<stop offset="0.878125" stop-color="#3D009F"/>
</linearGradient>
</defs>
</svg>
